<?xml version="1.0" ?><!DOCTYPE svg  PUBLIC '-//W3C//DTD SVG 1.1//EN'  'http://www.w3.org/Graphics/SVG/1.1/DTD/svg11.dtd'><svg enable-background="new 0 0 91 91" height="91px" id="Layer_1" version="1.1" viewBox="0 0 91 91" width="91px" xml:space="preserve" xmlns="http://www.w3.org/2000/svg" xmlns:xlink="http://www.w3.org/1999/xlink"><g><g><g><g><path d="M80.265,67.626c-2.441,0-4.686,0.84-6.479,2.234L54.548,56.22c0.857-1.525,1.35-3.281,1.35-5.15      c0-4.959-3.438-9.119-8.053-10.25V23.788c4.615-1.131,8.053-5.295,8.053-10.256c0-5.824-4.736-10.564-10.561-10.564      c-5.828,0-10.57,4.74-10.57,10.564c0,4.959,3.438,9.119,8.053,10.254v17.036c-4.615,1.133-8.053,5.291-8.053,10.248      c0,1.984,0.561,3.838,1.518,5.426l-18.77,13.311c-1.779-1.361-3.992-2.18-6.398-2.18c-5.83,0-10.57,4.74-10.57,10.566      s4.74,10.566,10.57,10.566c5.824,0,10.564-4.74,10.564-10.566c0-1.598-0.367-3.109-1.006-4.469l19.211-13.621      c1.594,0.965,3.455,1.531,5.451,1.531c2.119,0,4.09-0.633,5.746-1.713l19.576,13.883c-0.615,1.338-0.969,2.822-0.969,4.389      c0,5.826,4.744,10.566,10.574,10.566c5.824,0,10.563-4.74,10.563-10.566S86.089,67.626,80.265,67.626z M39.792,13.532      c0-3.055,2.486-5.539,5.545-5.539c3.053,0,5.537,2.484,5.537,5.539c0,3.057-2.484,5.543-5.537,5.543      C42.278,19.075,39.792,16.588,39.792,13.532z M11.116,83.733c-3.059,0-5.545-2.486-5.545-5.541s2.486-5.541,5.545-5.541      c3.055,0,5.539,2.486,5.539,5.541S14.171,83.733,11.116,83.733z M39.792,51.069c0-3.055,2.486-5.539,5.545-5.539      c3.053,0,5.537,2.484,5.537,5.539s-2.484,5.539-5.537,5.539C42.278,56.608,39.792,54.124,39.792,51.069z M80.265,83.733      c-3.059,0-5.549-2.486-5.549-5.541s2.49-5.541,5.549-5.541c3.053,0,5.537,2.486,5.537,5.541S83.317,83.733,80.265,83.733z"/><path d="M36.419,32.946c1.279-0.541,1.877-2.016,1.336-3.293c-0.541-1.279-2.014-1.877-3.293-1.334      c-9.676,4.092-15.928,13.526-15.928,24.03c0,2.352,0.316,4.695,0.943,6.967c0.309,1.115,1.318,1.846,2.422,1.846      c0.221,0,0.445-0.029,0.668-0.092c1.338-0.369,2.123-1.752,1.754-3.09c-0.506-1.836-0.762-3.73-0.762-5.631      C23.56,43.868,28.606,36.251,36.419,32.946z"/><path d="M56.825,69.493c-3.58,2.555-7.803,3.904-12.209,3.904c-3.906,0-7.721-1.078-11.033-3.117      c-1.182-0.729-2.729-0.359-3.457,0.822c-0.727,1.182-0.359,2.729,0.822,3.457c4.104,2.527,8.83,3.863,13.668,3.863      c5.457,0,10.688-1.674,15.127-4.838c1.129-0.807,1.393-2.375,0.586-3.506C59.524,68.95,57.954,68.687,56.825,69.493z"/><path d="M67.333,59.114c0.152,0.027,0.305,0.041,0.455,0.041c1.189,0,2.246-0.85,2.469-2.063      c0.283-1.559,0.428-3.154,0.428-4.744c0-10.508-6.25-19.94-15.92-24.032c-1.277-0.537-2.752,0.057-3.291,1.336      c-0.541,1.277,0.057,2.752,1.334,3.293c7.807,3.303,12.852,10.918,12.852,19.403c0,1.289-0.117,2.582-0.346,3.842      C65.063,57.556,65.968,58.864,67.333,59.114z"/></g></g></g></g></svg>